<svg xmlns="http://www.w3.org/2000/svg" viewBox="0 0 72 72">
    <path fill="currentColor" d="M 36 10 C 34.343 10 33 11.343 33 13 L 33 14.130859 C 24.191788 14.837007 19.222721 18.527331 16.837891 21 L 14 21 C 12.343 21 11 22.343 11 24 C 11 25.657 12.343 27 14 27 L 58 27 C 59.657 27 61 25.657 61 24 C 61 22.343 59.657 21 58 21 L 55.162109 21 C 52.777279 18.527331 47.808212 14.837007 39 14.130859 L 39 13 C 39 11.343 37.657 10 36 10 z M 15.5 30 C 14.672 30 14 30.672 14 31.5 L 14 33 L 12 33 C 10.343 33 9 34.343 9 36 C 9 37.657 10.343 39 12 39 L 14 39 L 14 52 C 14 56.418 17.582 60 22 60 L 50 60 C 54.418 60 58 56.418 58 52 L 58 39 L 60 39 C 61.657 39 63 37.657 63 36 C 63 34.343 61.657 33 60 33 L 58 33 L 58 31.5 C 58 30.672 57.328 30 56.5 30 L 15.5 30 z"/>
</svg>