<svg xmlns="http://www.w3.org/2000/svg"  viewBox="0 0 50 50" width="25px" height="25px"><path fill="currentColor" d="M 42.224609 6.0351562 C 41.870609 6.0600312 41.512016 6.2209063 41.228516 6.5039062 L 40.042969 7.6757812 L 42.375 10.023438 L 43.539062 8.8300781 C 44.121063 8.2180781 44.167938 7.3759219 43.585938 6.7949219 L 43.1875 6.3808594 C 42.927 6.1203594 42.578609 6.0102813 42.224609 6.0351562 z M 38.916016 8.8007812 L 26.412109 21.318359 L 25.033203 24.351562 C 24.880203 24.703563 25.278859 25.101844 25.630859 24.964844 L 28.769531 23.646484 L 41.273438 11.142578 L 38.916016 8.8007812 z M 15.5 11 C 13.019 11 11 13.019 11 15.5 L 11 34.5 C 11 36.981 13.019 39 15.5 39 L 34.5 39 C 36.981 39 39 36.981 39 34.5 L 39 14.759766 L 29.337891 24.492188 L 26.017578 25.886719 C 25.830578 25.960719 25.658422 25.992188 25.482422 25.992188 C 24.992422 25.992188 24.516234 25.730594 24.240234 25.308594 C 23.971234 24.898594 23.926188 24.390172 24.117188 23.951172 L 25.576172 20.740234 L 35.25 11 L 15.5 11 z"/></svg>